{"accessors" : [{"bufferView" : 0, "byteOffset" : 0, "componentType" : 5123, "count" : 570, "type" : "SCALAR", "max" : [164], "min" : [0]}, {"bufferView" : 1, "byteOffset" : 0, "componentType" : 5126, "count" : 165, "type" : "VEC3", "max" : [0.049478013068437576, 0.6677189469337463, 0.07190372049808502], "min" : [0.014920029789209366, 0.6332446932792664, 0.05352570116519928], "name" : "POSITION"}, {"bufferView" : 1, "byteOffset" : 12, "componentType" : 5126, "count" : 165, "type" : "VEC3", "max" : [0.9745171666145325, 0.9792512059211731, 1.0000042915344238], "min" : [-0.9743995070457458, -0.9773389101028442, 0.1979924887418747], "name" : "NORMAL"}, {"bufferView" : 1, "byteOffset" : 24, "componentType" : 5126, "count" : 165, "type" : "VEC2", "max" : [0.9646214246749878, 0.9818061590194702], "min" : [0.019903719425201416, 0.020990610122680664], "name" : "TEXCOORD_0"}, {"bufferView" : 1, "byteOffset" : 32, "componentType" : 5126, "count" : 165, "type" : "VEC2", "max" : [0.9935725927352905, 0.9611957669258118], "min" : [0.04407842457294464, 0.020823240280151367], "name" : "TEXCOORD_1"}, {"bufferView" : 0, "byteOffset" : 1140, "componentType" : 5123, "count" : 8757, "type" : "SCALAR", "max" : [1961], "min" : [0]}, {"bufferView" : 2, "byteOffset" : 0, "componentType" : 5126, "count" : 1962, "type" : "VEC3", "max" : [0.09497568011283875, 0.7805024981498718, 0.1138351708650589], "min" : [-0.09929926693439484, 0.5508484840393066, -0.12504883110523224], "name" : "POSITION"}, {"bufferView" : 2, "byteOffset" : 12, "componentType" : 5126, "count" : 1962, "type" : "VEC3", "max" : [0.9998419880867004, 0.999496340751648, 0.9992684721946716], "min" : [-0.9998455047607422, -0.99923175573349, -0.9999983906745911], "name" : "NORMAL"}, {"bufferView" : 2, "byteOffset" : 24, "componentType" : 5126, "count" : 1962, "type" : "VEC2", "max" : [0.990181028842926, 0.998046875], "min" : [0.0019531213911250234, 0.001953125], "name" : "TEXCOORD_0"}, {"bufferView" : 0, "byteOffset" : 18656, "componentType" : 5123, "count" : 10344, "type" : "SCALAR", "max" : [2055], "min" : [0]}, {"bufferView" : 3, "byteOffset" : 0, "componentType" : 5126, "count" : 2056, "type" : "VEC3", "max" : [0.8336747288703918, 0.3603891432285309, 0.09627869725227356], "min" : [-0.8336747288703918, 0.31057631969451904, -0.04603327065706253], "name" : "POSITION"}, {"bufferView" : 3, "byteOffset" : 12, "componentType" : 5126, "count" : 2056, "type" : "VEC3", "max" : [0.9994828701019287, 0.999745786190033, 0.9974438548088074], "min" : [-0.9994829893112183, -0.9997031688690186, -0.9974484443664551], "name" : "NORMAL"}, {"bufferView" : 3, "byteOffset" : 24, "componentType" : 5126, "count" : 2056, "type" : "VEC2", "max" : [0.968315601348877, 0.9907870292663574], "min" : [0.46754491329193115, 0.4208555221557617], "name" : "TEXCOORD_0"}, {"bufferView" : 0, "byteOffset" : 39344, "componentType" : 5123, "count" : 12282, "type" : "SCALAR", "max" : [2161], "min" : [0]}, {"bufferView" : 4, "byteOffset" : 0, "componentType" : 5126, "count" : 2162, "type" : "VEC3", "max" : [0.09544158726930618, 0.7566635608673096, 0.10344671458005905], "min" : [-0.09544249624013901, 0.44184237718582153, -0.12177661806344986], "name" : "POSITION"}, {"bufferView" : 4, "byteOffset" : 12, "componentType" : 5126, "count" : 2162, "type" : "VEC3", "max" : [0.9993481040000916, 0.999872088432312, 1.0000042915344238], "min" : [-0.9993398189544678, -0.9992321729660034, -1.0000026226043701], "name" : "NORMAL"}, {"bufferView" : 4, "byteOffset" : 24, "componentType" : 5126, "count" : 2162, "type" : "VEC2", "max" : [0.9943000078201294, 0.9807000160217285], "min" : [0.004999999888241291, 0.004350006580352783], "name" : "TEXCOORD_0"}, {"bufferView" : 0, "byteOffset" : 63908, "componentType" : 5123, "count" : 1701, "type" : "SCALAR", "max" : [508], "min" : [0]}, {"bufferView" : 5, "byteOffset" : 0, "componentType" : 5126, "count" : 509, "type" : "VEC3", "max" : [0.11545175313949585, 0.5644998550415039, 0.04842298477888107], "min" : [-0.11578022688627243, 0.39392369985580444, -0.13505002856254578], "name" : "POSITION"}, {"bufferView" : 5, "byteOffset" : 12, "componentType" : 5126, "count" : 509, "type" : "VEC3", "max" : [0.9939754009246826, 0.9990893602371216, 0.9990162253379822], "min" : [-0.9985091686248779, -0.9875309467315674, -0.9128198623657227], "name" : "NORMAL"}, {"bufferView" : 5, "byteOffset" : 24, "componentType" : 5126, "count" : 509, "type" : "VEC2", "max" : [0.9181128740310669, 0.979159414768219], "min" : [0.014290831983089447, 0.01619178056716919], "name" : "TEXCOORD_0"}, {"bufferView" : 0, "byteOffset" : 67312, "componentType" : 5123, "count" : 300, "type" : "SCALAR", "max" : [83], "min" : [0]}, {"bufferView" : 6, "byteOffset" : 0, "componentType" : 5126, "count" : 84, "type" : "VEC3", "max" : [0.027969256043434143, 0.6006815433502197, 0.08408619463443756], "min" : [-0.027969256043434143, 0.5658844709396362, 0.01754915341734886], "name" : "POSITION"}, {"bufferView" : 6, "byteOffset" : 12, "componentType" : 5126, "count" : 84, "type" : "VEC3", "max" : [0.9971615076065063, 0.8840028047561646, 0.9994606971740723], "min" : [-0.9971615672111511, -0.977453887462616, -0.7929723262786865], "name" : "NORMAL"}, {"bufferView" : 6, "byteOffset" : 24, "componentType" : 5126, "count" : 84, "type" : "VEC2", "max" : [0.9808249473571777, 0.983213484287262], "min" : [0.051069796085357666, 0.02829587459564209], "name" : "TEXCOORD_0"}], "asset" : {"generator" : "Aspose.3D 21.5.1", "version" : "2.0"}, "buffers" : [{"uri" : "data:application/octet-stream;base64,", "byteLength" : 1159028}], "bufferViews" : [{"buffer" : 0, "byteOffset" : 0, "byteLength" : 67912, "target" : 34963}, {"buffer" : 0, "byteOffset" : 67916, "byteLength" : 22800, "byteStride" : 40, "target" : 34962}, {"buffer" : 0, "byteOffset" : 90720, "byteLength" : 280224, "byteStride" : 32, "target" : 34962}, {"buffer" : 0, "byteOffset" : 370948, "byteLength" : 331008, "byteStride" : 32, "target" : 34962}, {"buffer" : 0, "byteOffset" : 701960, "byteLength" : 393024, "byteStride" : 32, "target" : 34962}, {"buffer" : 0, "byteOffset" : 1094988, "byteLength" : 54432, "byteStride" : 32, "target" : 34962}, {"buffer" : 0, "byteOffset" : 1149424, "byteLength" : 9600, "byteStride" : 32, "target" : 34962}], "images" : [{"uri" : "data:image/jpeg;base64,"}, {"uri" : "data:image/png;base64,"}, {"uri" : "data:image/jpeg;base64,"}, {"uri" : "data:image/jpeg;base64,"}, {"uri" : "data:image/png;base64,"}, {"uri" : "data:image/jpeg;base64,"}], "materials" : [{"pbrMetallicRoughness" : {"baseColorFactor" : [1, 1, 1, 1], "baseColorTexture" : {"index" : 0, "texCoord" : 0}, "metallicFactor" : 0, "roughnessFactor" : 1}, "emissiveFactor" : [0, 0, 0], "alphaMode" : "OPAQUE", "doubleSided" : true}, {"pbrMetallicRoughness" : {"baseColorFactor" : [1, 1, 1, 1], "baseColorTexture" : {"index" : 0, "texCoord" : 0}, "metallicFactor" : 0, "roughnessFactor" : 1}, "emissiveFactor" : [0, 0, 0], "alphaMode" : "OPAQUE", "doubleSided" : true}, {"pbrMetallicRoughness" : {"baseColorFactor" : [1, 1, 1, 1], "baseColorTexture" : {"index" : 2, "texCoord" : 0}, "metallicFactor" : 0, "roughnessFactor" : 1}, "normalTexture" : {"index" : 1, "texCoord" : 0, "scale" : 1}, "emissiveFactor" : [0, 0, 0], "alphaMode" : "OPAQUE", "doubleSided" : true}, {"pbrMetallicRoughness" : {"baseColorFactor" : [1, 1, 1, 1], "baseColorTexture" : {"index" : 3, "texCoord" : 0}, "metallicFactor" : 0, "roughnessFactor" : 0.699999988079071}, "emissiveFactor" : [0, 0, 0], "alphaMode" : "OPAQUE", "doubleSided" : true}, {"pbrMetallicRoughness" : {"baseColorFactor" : [1, 1, 1, 1], "baseColorTexture" : {"index" : 3, "texCoord" : 0}, "metallicFactor" : 0, "roughnessFactor" : 0.699999988079071}, "emissiveFactor" : [0, 0, 0], "alphaMode" : "OPAQUE", "doubleSided" : true}, {"pbrMetallicRoughness" : {"baseColorFactor" : [1, 1, 1, 1], "baseColorTexture" : {"index" : 4, "texCoord" : 0}, "metallicFactor" : 0, "roughnessFactor" : 1}, "emissiveFactor" : [0, 0, 0], "alphaMode" : "OPAQUE", "doubleSided" : true}, {"pbrMetallicRoughness" : {"baseColorFactor" : [1, 1, 1, 1], "baseColorTexture" : {"index" : 5, "texCoord" : 0}, "metallicFactor" : 0, "roughnessFactor" : 1}, "emissiveFactor" : [0, 0, 0], "alphaMode" : "OPAQUE", "doubleSided" : true}], "meshes" : [{"primitives" : [{"attributes" : {"POSITION" : 1, "NORMAL" : 2, "TEXCOORD_0" : 3, "TEXCOORD_1" : 4}, "indices" : 0, "material" : 0, "mode" : 4}]}, {"primitives" : [{"attributes" : {"POSITION" : 1, "NORMAL" : 2, "TEXCOORD_0" : 3, "TEXCOORD_1" : 4}, "indices" : 0, "material" : 1, "mode" : 4}]}, {"primitives" : [{"attributes" : {"POSITION" : 6, "NORMAL" : 7, "TEXCOORD_0" : 8}, "indices" : 5, "material" : 2, "mode" : 4}]}, {"primitives" : [{"attributes" : {"POSITION" : 10, "NORMAL" : 11, "TEXCOORD_0" : 12}, "indices" : 9, "material" : 3, "mode" : 4}]}, {"primitives" : [{"attributes" : {"POSITION" : 14, "NORMAL" : 15, "TEXCOORD_0" : 16}, "indices" : 13, "material" : 4, "mode" : 4}]}, {"primitives" : [{"attributes" : {"POSITION" : 18, "NORMAL" : 19, "TEXCOORD_0" : 20}, "indices" : 17, "material" : 5, "mode" : 4}]}, {"primitives" : [{"attributes" : {"POSITION" : 22, "NORMAL" : 23, "TEXCOORD_0" : 24}, "indices" : 21, "material" : 6, "mode" : 4}]}], "nodes" : [{"mesh" : 0, "name" : "EyeLeft"}, {"mesh" : 1, "name" : "EyeRight"}, {"mesh" : 2, "name" : "Wolf3D_Hair"}, {"mesh" : 3, "name" : "Wolf3D_Hands"}, {"mesh" : 4, "name" : "Wolf3D_Head"}, {"mesh" : 5, "name" : "Wolf3D_Shirt"}, {"mesh" : 6, "name" : "Wolf3D_Teeth"}, {"children" : [0, 1, 2, 3, 4, 5, 6], "name" : "AvatarRoot"}], "samplers" : [{"magFilter" : 9729, "minFilter" : 9986, "wrapS" : 10497, "wrapT" : 10497}, {"magFilter" : 9729, "minFilter" : 9986, "wrapS" : 10497, "wrapT" : 10497}, {"magFilter" : 9729, "minFilter" : 9986, "wrapS" : 10497, "wrapT" : 10497}, {"magFilter" : 9729, "minFilter" : 9986, "wrapS" : 10497, "wrapT" : 10497}, {"magFilter" : 9729, "minFilter" : 9986, "wrapS" : 10497, "wrapT" : 10497}, {"magFilter" : 9729, "minFilter" : 9986, "wrapS" : 10497, "wrapT" : 10497}], "scene" : 0, "scenes" : [{"nodes" : [7]}], "textures" : [{"sampler" : 0, "source" : 0}, {"sampler" : 1, "source" : 1}, {"sampler" : 2, "source" : 2}, {"sampler" : 3, "source" : 3}, {"sampler" : 4, "source" : 4}, {"sampler" : 5, "source" : 5}]}